<?xml version="1.0" encoding="utf-8"?>
<!-- Svg Vector Icons : http://www.onlinewebfonts.com/icon -->
<!DOCTYPE svg PUBLIC "-//W3C//DTD SVG 1.1//EN" "http://www.w3.org/Graphics/SVG/1.1/DTD/svg11.dtd">
<svg version="1.1" xmlns="http://www.w3.org/2000/svg" xmlns:xlink="http://www.w3.org/1999/xlink" x="0px" y="0px" viewBox="0 0 1000 1000" enable-background="new 0 0 1000 1000" xml:space="preserve">
<metadata> Svg Vector Icons : http://www.onlinewebfonts.com/icon </metadata>
<g><g transform="translate(0.000000,511.000000) scale(0.100000,-0.100000)"><path d="M4554.9,5002.5c-32.4-4.6-150.4-20.8-266.1-34.7c-999.7-125-2011-631.8-2765.5-1386.2C782.7,2841.1,329.1,1957,141.7,885.5c-55.5-321.7-55.5-1224.2,0-1541.3C403.2-2150.7,1227-3361,2502.1-4120.1c1511.2-900.2,3469-897.9,4987.1,2.3C8820-3328.6,9690.1-1991,9877.6-445.1c34.7,287,27.8,884-11.6,1194.1c-71.7,543.8-217.5,1027.5-462.8,1525.1c-726.7,1485.7-2138.3,2492.4-3790.7,2707.6C5369.5,5011.8,4716.9,5025.7,4554.9,5002.5z M5614.8,4680.9C7681.4,4387,9273.6,2801.7,9565.2,746.7c46.3-312.4,44-969.7-2.3-1282.1c-252.3-1726.4-1455.7-3182.1-3087.2-3725.9c-796.1-266.1-1733.3-312.4-2545.6-120.3C2231.4-3983.6,873-2606.6,495.7-905.7c-92.6,425.8-113.4,673.4-99.5,1173.3c9.3,365.6,25.5,513.8,74.1,745.2C771.1,2447.6,1669,3614,2969.6,4252.7c442,217.5,867.8,347.1,1388.5,425.8C4640.5,4722.5,5316.3,4722.5,5614.8,4680.9z"/><path d="M4746.9,2850.3C3985.6,2174.6,2104.1,487.5,2060.1,441.2c-69.4-74-60.2-162,23.1-222.2c85.6-64.8,113.4-48.6,435.1,238.4l266.1,240.7L2796.1-864c9.3-1161.7,18.5-1571.4,39.3-1608.4c48.6-83.3,187.4-192.1,266.1-206c41.7-6.9,312.4-11.6,601.7-6.9c583.2,6.9,590.1,9.2,708.1,180.5c50.9,76.4,50.9,83.3,50.9,904.9c0,796.1,2.3,830.8,44,854c67.1,34.7,958.1,30.1,992.8-4.6c20.8-20.8,27.8-236.1,27.8-826.2c0-895.6,6.9-932.6,164.3-1046c78.7-55.5,83.3-55.5,659.5-55.5h580.9l81,62.5c44,34.7,101.8,101.8,125,150.4c41.7,83.3,44,171.2,50.9,1610.7c2.3,835.4,13.9,1520.4,23.1,1520.4c11.6,0,141.2-108.8,291.6-243c291.6-261.5,358.7-291.6,453.6-196.7c62.5,62.5,57.9,125-16.2,206c-37,37-664.2,601.7-1395.5,1252c-731.3,652.6-1360.8,1215-1400.1,1252C5010.8,3058.6,4976.1,3051.7,4746.9,2850.3z M5966.5,1806.6l948.8-847V-634.9c0-1339.9-4.6-1606.1-32.4-1673.2l-34.7-81H6353c-432.8,0-499.9,4.6-511.4,37c-7,20.8-13.9,395.7-13.9,835.4c0,766-2.3,803-48.6,884C5679.6-459,5677.3-456.7,5020-449.8l-587.8,6.9l-85.6-57.9c-159.7-104.1-162-120.3-162-1025.2c0-597.1-6.9-814.6-27.8-835.4c-39.3-39.3-992.8-39.3-1032.1,0c-20.8,20.8-27.8,425.8-27.8,1682.4v1657l941.9,840.1c516.1,460.5,948.8,837.7,958.1,837.7C5008.5,2655.9,5443.5,2274.1,5966.5,1806.6z"/></g></g>
</svg>